<svg id="logo-steam" viewBox="0 0 191 65" xmlns="http://www.w3.org/2000/svg">
  <g fill="none" fill-rule="evenodd">
    <path d="M32 1c17.673 0 32 14.327 32 32 0 17.673-14.327 32-32 32C14.327 65 0 50.673 0 33 0 15.327 14.327 1 32 1z" fill="#50535a"/>
    <path d="M23.095 40.397A8.959 8.959 0 0 0 32 48.36c4.565 0 8.387-3.432 8.901-7.927l5.087.582C45.178 48.088 39.174 53.48 32 53.48a14.078 14.078 0 0 1-13.994-12.52l5.089-.563zM32 12.52c7.776 0 14.08 6.304 14.08 14.08S39.776 40.68 32 40.68 17.92 34.376 17.92 26.6 24.224 12.52 32 12.52zm0 5.12a8.96 8.96 0 1 0 0 17.92 8.96 8.96 0 0 0 0-17.92z" fill="#22252d" fill-rule="nonzero"/>
    <g fill="#50535a" fill-rule="nonzero">
      <path d="M153.945 1C137.105 1 123.31 13.962 122 30.434l17.181 7.091a9.028 9.028 0 0 1 5.612-1.56l7.64-11.056v-.157c0-6.654 5.423-12.068 12.09-12.068 6.666 0 12.088 5.414 12.088 12.068 0 6.655-5.422 12.07-12.088 12.07-.092 0-.184 0-.275-.008l-10.897 7.762c.007.141.011.285.011.428 0 4.996-4.07 9.058-9.074 9.058-4.392 0-8.064-3.129-8.896-7.273l-12.288-5.068C126.91 55.153 139.27 65 153.944 65 171.65 65 186 50.673 186 33.001 186 15.327 171.648 1 153.945 1"/>
      <path d="m142.087 49.555-3.937-1.624a6.77 6.77 0 0 0 3.508 3.332c3.465 1.44 7.46-.2 8.904-3.663.7-1.673.704-3.522.01-5.2a6.758 6.758 0 0 0-3.677-3.687 6.79 6.79 0 0 0-5.018-.076l4.067 1.679a5.001 5.001 0 0 1 2.7 6.544 5.014 5.014 0 0 1-6.557 2.695M172.576 24.752c0-4.433-3.613-8.04-8.055-8.04-4.441 0-8.055 3.607-8.055 8.04 0 4.435 3.614 8.04 8.055 8.04 4.442 0 8.055-3.606 8.055-8.04m-14.092-.013c0-3.337 2.709-6.04 6.051-6.04a6.046 6.046 0 0 1 6.051 6.04c0 3.336-2.709 6.04-6.051 6.04s-6.051-2.705-6.051-6.04"/>
    </g>
    <path d="M80 25h26v18H80z"/>
    <path stroke="#50535a" stroke-width="2" d="m96 26 8 8-8 8M103 34H80"/>
    <g transform="translate(167)">
      <circle fill="#eb9900" cx="12" cy="12" r="12"/>
      <path d="M5 7h15v11H5z"/>
      <path stroke="#22252d" stroke-width="2" d="m6 11 5 5 8-8"/>
    </g>
  </g>
</svg>
