<svg width="144" height="46" viewBox="0 0 144 46" xmlns="http://www.w3.org/2000/svg">
  <g fill="none" fill-rule="evenodd">
    <path d="M51.196 16.8c-.141-.144-.224-.275-.34-.458l-.2-.3a3.13 3.13 0 0 0 .501-.8l.516-1.175-1.27-.182c-.214-.032-.56-.122-.963-.229-.778-.204-1.778-.467-2.868-.581a1.94 1.94 0 0 0 .91-.857l.21-.377s-.057-.528-.261-.693c.078-.163.139-.343.18-.54l.173-.842-.813-.277a2.188 2.188 0 0 0-.377-.095 2.678 2.678 0 0 0-.206-.49l-.482-.883-.868.509a2.307 2.307 0 0 0-.547.435 2.232 2.232 0 0 0-.414-.036s-.496-.056-1.043.143l-.7-.727-.83-.886c-.776-.83-1.827-1.075-2.897-.666-.408-.409-1.045-.747-2.035-.747-.336 0-.63.041-.803.063 0 0-1.362.248-2.128.976l-.93-.443c-.622.98-1.687 1.292-1.687 1.292a2.343 2.343 0 0 0-.374-.8l.06-.346c0-.01.21-1.18.847-2.173l1.109-1.727-1.571.177a4.334 4.334 0 0 0-.025-.56l-.14-1.342-1.231.557c-.137.06-.251.122-.358.178l-.243-.519-.564.292a4.537 4.537 0 0 0-.23-.479L27.657 0l-.922.995a3.758 3.758 0 0 0-.243.287l-.56-.557-.564.56a4.371 4.371 0 0 0-.243-.288L24.192 0l-.652 1.197c-.1.182-.17.338-.226.477l-.562-.292-.243.518c-.107-.056-.221-.117-.357-.18l-1.236-.555-.136 1.348c-.022.217-.03.4-.024.555l-1.574-.178 1.112 1.728c.64.99.843 2.16.843 2.17l.059.345a2.327 2.327 0 0 0-.375.803s-1.006-.43-1.68-1.294l-.949.453c-1.082-.73-1.753-1.015-2.92-1.05-.99-.026-1.628.339-2.037.748-1.072-.407-2.12-.16-2.894.669 0 0-.508.552-.829.886-.321.335-.795.613-.795.613s-.674-.151-1.367.007a2.356 2.356 0 0 0-.552-.438l-.871-.509-.48.888c-.092.17-.157.331-.2.485a2.19 2.19 0 0 0-.378.095l-.807.282.167.837c.042.202.1.382.18.545-.046.09-.087.185-.121.284l-.136.407.206.377c.22.396.533.693.908.856-1.093.114-2.09.377-2.87.582-.402.104-.747.197-.961.228l-1.274.185.289.657.231.523c.131.292.304.562.503.796-.075.107-.396.61-.54.754L0 17.457l.618.68c.078.083.77.811 1.892.813.306 0 .61-.053.912-.16.3.467.654.941.978 1.175-.596.7-1.275 1.309-2.24 1.769l-.808.384.348.922c.226.557.666 1.168 1.518 1.402-.183.545-.27 1.06-.348 1.52-.183 1.093-.26 1.545-1.221 1.883l-.863.302.248.88c.199.718.498 1.193.822 1.507l-.574.632s1.362 1.022 2.697 1.146c.02.003 1.158.076 1.668-.576.205.74.528 1.42.822 2.038.604 1.27.925 2.022.52 2.708l-.911 1.548 1.792-.076c.783-.031 1.51-.08 2.14-.236 0 .034-.002.066-.004.098l-.146 1.328 1.57-.33c.166-.05.322-.115.463-.19.973 1.138 2.627 2.026 4.854 2.026h.13l-2.562 1.05 1.866.972c1.228.64 2.592 1.175 4.149 1.63l-.217.747.937.275c.54.158 2.493.676 4.871.676 2.379 0 4.33-.518 4.872-.676l.934-.275-.217-.745c1.56-.455 2.924-.99 4.152-1.63l1.866-.97-2.564-1.052h.129c2.228 0 3.88-.888 4.852-2.026.141.075.297.14.462.19l1.571.33-.143-1.326a1.328 1.328 0 0 1-.005-.1c.627.156 1.357.203 2.138.237l1.792.075-.907-1.545c-.406-.686-.083-1.438.518-2.708.294-.618.618-1.299.822-2.039.345.263.718.421 1.087.504 0 0 .287.085.562.092.793.025 1.19-.201 1.734-.544l.99-.623-.579-.633c.324-.311.623-.786.822-1.501l.25-.883-.865-.302c-.963-.338-1.039-.79-1.221-1.883-.078-.46-.163-.978-.348-1.52.851-.237 1.29-.847 1.515-1.402l.346-.925-.808-.384c-.965-.46-1.644-1.068-2.242-1.769.326-.233.68-.708.982-1.175.3.107.604.158.913.16a2.679 2.679 0 0 0 1.892-.81l.618-.68-.645-.662z" fill="#b0b5c1" fill-rule="nonzero"/>
    <path d="M18.017 28.79v-7.421c0-.691-.2-1.382-.437-2.017h5.756c.528.725 1.486 1.211 2.586 1.211 1.094 0 2.053-.486 2.583-1.211h5.756c-.243.637-.44 1.326-.44 2.017v7.42H18.017zm7.902 10.14c-.805-.8-1.379-.888-3.548-.888-2.593 0-4.354-1.52-4.354-3.951v-4.866H33.82v4.866c0 2.43-1.759 3.95-4.356 3.95-2.167-.002-2.741.088-3.544.889z" fill="#eb9900"/>
    <path d="m29.227 41.58.774 2.493c-1.216.3-2.634.516-4.082.516-1.452 0-2.87-.219-4.08-.516l.77-2.494c.511.117 1.79.275 3.31.275 1.523 0 2.798-.155 3.308-.275zm3.68-1.733v1.484l1.283.518a21.05 21.05 0 0 1-4.02 1.348l-.732-2.377c1.557-.323 2.639-.654 3.466-.973zm-13.973 0c.825.319 1.91.652 3.466.97l-.73 2.378a21.125 21.125 0 0 1-4.023-1.348l1.287-.518v-1.482zM14.855 7.724c-.912 1.95.888 2.966 2.605 2.973.265 0 1.377-.111 1.377-.111-.18-.365-.895-1.363-.375-1.764.42.391.922.708 1.377 1.058 3.337 2.581-1.586 4.975-3.6 6.063-3.159 1.708-2.313 3.74-.994 4.267-.005.229-.146.331-.365.404-.924.304-1.79-.353-2.527-.776.044 1.275-.042 2.499 1.367 3.202l-.97.355c.836.633 1.089.97 2.093 1.1-.47.229-1.053.224-1.549.27.124.353.229.832.491 1.148-2.055.246-2.88-.93-3.516-.883-1.358.102-1.273 2.657 2.067 2.662l-.346.571s.633.37 1.212.44c-.222.183-.436.424-.623.61l.533.459c-1.362.243-1.75-1.207-2.632-.509-1.35 1.07 1.625 3.326 4.475 2.99-.238.307-.907.757-1.196.99 2.322 2.198 1.177 4.263 2.133 5.777-2.005-.132-3.488-1.601-3.836-3.192l-.564.96c-.205-.632-.57-1.289-.805-1.756-.453.937-1.17.956-1.863.961.153-2.243-2.666-4.499-1.425-7.058.245-.513.085-1.141-.448-1.409-1.887-.958-1.014 3.022-2.901 3.144.36-.455.496-1.4.55-1.482-.064.017-.141.046-.228.08l-.186.074c-.457.177-1.063.358-1.382-.22 1.104-.6 1.42-1.506 1.593-2.413.222-1.149.321-1.681.545-2.153.234-.504.606-.942 1.404-1.976-.19.027-2.316.477-2.793.253 1.504-.924 2.254-1.95 2.999-3.014l.249-.357c1.004-1.43 2.146-2.917 5.202-4.312-1.472-1.093-2.972-1.964-1.895-4.049 1.535 1.845 4.453 1.207 6.027.35-1.557-.31-3.563-1.685-4.04-3.21.586-.09 1.347.547 1.785.843.21-.562.292-1.218.975-1.36zm22.126-.007c.683.144.763.8.972 1.363.438-.295 1.2-.932 1.788-.842-.477 1.528-2.48 2.9-4.04 3.211 1.574.86 4.492 1.497 6.027-.35 1.077 2.088-.423 2.959-1.895 4.051 5.604 2.557 4.777 5.425 8.452 7.683-.474.224-2.605-.226-2.795-.253.8 1.034 1.175 1.472 1.406 1.976.224.472.321 1.005.543 2.153.177.907.493 1.813 1.59 2.401-.433.786-1.39.173-1.79.069.051.082.185 1.026.547 1.481-.787-.05-1.094-.771-1.32-1.525l-.088-.302c-.27-.952-.497-1.822-1.496-1.316-.532.27-.693.897-.445 1.408 1.236 2.56-1.58 4.815-1.422 7.058l-.247-.003c-.615-.019-1.224-.131-1.621-.958-.231.468-.601 1.125-.803 1.757l-.564-.961c-.353 1.591-1.836 3.06-3.836 3.195.951-1.516-.192-3.584 2.133-5.779-.29-.233-.958-.686-1.199-.992 2.853.335 5.825-1.92 4.475-2.99-.882-.699-1.272.751-2.631.508l.533-.46c-.188-.185-.404-.428-.626-.608.582-.07 1.214-.44 1.214-.44l-.345-.572c3.341-.005 3.422-2.56 2.07-2.662-.633-.046-1.46 1.126-3.517.883.257-.316.367-.795.493-1.148-.493-.046-1.082-.042-1.549-.27 1.005-.13 1.255-.467 2.092-1.1l-.968-.355c1.408-.7 1.32-1.927 1.362-3.202-.732.426-1.603 1.083-2.522.776-.222-.073-.363-.175-.368-.404 1.321-.52 2.16-2.552-.994-4.26-2.014-1.085-6.942-3.481-3.602-6.063.457-.35.953-.664 1.374-1.058.523.401-.192 1.399-.37 1.764 0 0 1.11.112 1.372.112 1.72-.007 3.522-1.024 2.61-2.976zM28.533 35.16c.265.153.453.24.771.367-.026.051-.06.078-.085.139l-.71 1.75h-.443l.71-1.694c.074-.222-.065-.324-.243-.562zm-5.289-5.372c.11.095.07.365.07.365.417 0 1.62.596 1.664 2.094 0 0 .275.404.623.426l1.77.105c.292 0 1.027-.562 1.973-.032.24-.143.494-.262.756-.284.832-.068 1.442.515 1.9 1.097.333.423.788 1.07.788 1.07-.195.234-.39.312-.552.254-.246-.127-.326-.327-.404-.599-.124-.436-.603-.808-.603-.808.163.29.197.623.275.927-.691-.684-.823-1.523-1.309-1.642-.216-.051-.464.041-.693.311.24.567.229 1.224.479 1.662.192.331.231.365.316.43.207.149.088.412.059.604l-.268 1.647h-.438l.292-1.61c.09-.492-1.289-.492-1.994-1.429-.6.704-2.286.528-3.016.419-.292-.046-.579-.027-.742.263-.095.163-.253.116-.35.092l-1.33-.287c-.234-.056-.338-.01-.44.207l-.266.55c-.058.126-.058.223.049.326l.129.133c-.078.266-.316.468-.316.468l-.292-.329c-.141-.163-.148-.406-.037-.642l.43-.893a.347.347 0 0 1 .324-.207l1.644-.024-.503-.825c-.2-.327-.117-.792-.01-1.233l.081-.324c.052-.21.093-.404.092-.562l-.01-.11-.017.117c-.131.54-.876.264-.997.355l-.204.11c-.139.08-.212.117-.333-.034l-.088-.11c-.044-.053-.056-.185.034-.284l.873-1.015-.805-.66 1.026.376.37-.465zM19.43 11.732c-1.75 1.196-6.389 1.841-8.473 1.277 1.15.769 3.92.698 4.599.554-2.26 2.197-7.192 4.467-8.046 6.487 1.202-1.316 1.98-1.56 3.019-1.9-.817 1.22-1.557 2.299-2.065 3.547-1.314 2.854-3.067 2.89-3.184 5.24.598-1.822 1.815-2.284 2.656-3.481-.148.761-.216 1.61-.19 2.589a8.07 8.07 0 0 0 .582 2.834c-.088 1.163.017 3.148 1.35 4.46-.905-1.146-1.1-3.01-1.02-3.737 1.041 2.012 4.016 4.795 5.453 6.664-1.435-2.404-4.961-5.212-5.715-8.455.481.506 1.067.557 2.174.486-1.218-.148-1.902-.445-2.327-1.252-.064-.421-.105-.867-.122-1.343-.039-1.283.384-2.81 1.27-4.484-.005 1.05.826 2.7 2.68 2.973-1.669-.728-2.649-2.37-2.114-3.961.348-.555.74-1.127 1.177-1.71.22-.28.433-.553.642-.803-.223.81.757 1.647 1.413 1.788-.355-.348-1.118-1.477.645-3.363a7.814 7.814 0 0 0-1.447.889c3.203-3.46 5.834-3.56 7.043-5.3zm12.976-.008c1.213 1.742 3.842 1.84 7.046 5.3a8.167 8.167 0 0 0-1.45-.884c1.76 1.886 1 3.015.642 3.363.657-.142 1.637-.979 1.413-1.789.212.251.426.523.645.803.442.582.831 1.156 1.177 1.71.532 1.59-.45 3.232-2.114 3.961 1.856-.272 2.688-1.922 2.68-2.973.886 1.674 1.311 3.202 1.27 4.484a11.82 11.82 0 0 1-.122 1.343c-.425.808-1.109 1.105-2.325 1.253 1.11.07 1.69.017 2.177-.486-.756 3.24-4.283 6.05-5.72 8.454 1.44-1.868 4.412-4.652 5.457-6.664.08.728-.116 2.589-1.019 3.737 1.333-1.311 1.435-3.296 1.35-4.46.338-.836.55-1.77.581-2.834a11.367 11.367 0 0 0-.19-2.588c.845 1.197 2.058 1.659 2.657 3.476-.115-2.352-1.87-2.386-3.187-5.24-.508-1.248-1.242-2.324-2.062-3.548 1.034.341 1.814.585 3.016 1.9-.46-1.09-2.11-2.252-3.886-3.437l-.536-.357-.621-.413c-1.135-.76-2.228-1.523-3.005-2.279.679.144 3.451.215 4.6-.554-2.083.567-6.72-.08-8.474-1.278zm-10.742 21.47.087.001 1.102.146c.058.263.236.52.236.52l-1.17-.245c-.166-.024-.214-.012-.37.102l-.554.419c-.11.085-.112.221-.049.355l.087.19-.386.294-.149-.277c-.148-.3-.16-.567.088-.76l.778-.593a.8.8 0 0 1 .223-.136l.077-.017zm12.597-13.845c-.243.638-.44 1.328-.44 2.02v7.42h-2.485l-1.579-.002c-.031-.256.049-.874.049-.874-.513-.202-.754-.808-.606-1.482l-1.177 1.03c-.53.464-.987.567-1.622.384l-4.512-1.397c-.085.26-.348.708-.766.599-.508-.134-.481-.667-.338-.912-.134-.11-.11-.363.056-.443-.163-.088-.124-.334.007-.387-.109-.049-.153-.2-.133-.336l-.28-.002c-.696-.005-.48-1.336.25-1.02l.567.275.097-3.343 1.316-1.124.693 1.477-1.138 3.187c.92-.158 1.255.215 1.129.536l2.899.328c.262.034.588-.058.839-.345l.65-.75a1.223 1.223 0 0 1-.835-.934c-.932-.212-1.306-1.024-1.177-1.893a1.54 1.54 0 0 1-.538-.873c.234.044.48.073.735.073 1.092 0 2.052-.487 2.58-1.212h5.76zm-5.481-4.926 2.334 1.355c-.856.15-1.593 1.2-2.196 2.143l-.068.11h-.642l-.005.111c-.065.73-.756 1.72-2.286 1.72-.705 0-1.236-.213-1.603-.51a1.91 1.91 0 0 1-.613-.881 1.364 1.364 0 0 1-.068-.329l-.007-.111h-.64l-.068-.11c-.605-.944-1.342-1.995-2.198-2.143l2.332-1.355 2.865 1.557 2.863-1.557zm20.492.751c-.43.321-.783.467-1.22.523.67.56 1.16 1.04 1.507 1.572-.65.16-1.016-.25-2.417-1.095.148.329.442 1.475-.26 2.348-.8-1.598-1.9-2.968-2.79-3.56-.195-.126.11-.347.657-.42 1.656-.317 3.597.387 4.523.632zM7.097 14.54c.542.073.85.295.651.421-.892.592-1.991 1.961-2.792 3.56-.7-.874-.403-2.017-.26-2.348-1.398.844-1.763 1.255-2.417 1.095.347-.533.836-1.01 1.51-1.572-.443-.056-.788-.202-1.223-.523.926-.246 2.872-.946 4.53-.633zm22.166-5.498-.82 4.712-2.286 1.202v-4.858l3.106-1.056zm-6.688 0 3.101 1.056v4.858l-2.286-1.202-.815-4.712zm.92 3.25s0 .205.479.53c.425.293 1.18.609 1.18.609l.002-.501zm4.846-.002-1.658.637v.499s.754-.314 1.18-.608c.478-.326.478-.528.478-.528zm-5.073-1.246.051.05c.09.087.305.278.655.517.425.292 1.18.606 1.18.606v-.501l-1.886-.672zm5.3-.002-1.885.674.002.498s.754-.313 1.18-.605c.39-.27.612-.478.68-.544l.023-.023zm-5.48-1.227s.404.327.886.655c.425.294 1.18.608 1.18.608v-.503zm5.655 0-2.06.76v.503s.754-.314 1.18-.608c.478-.328.88-.655.88-.655zm-2.824-2.85c1.773 0 3.101.58 3.388 1.262l-3.388 1.34-3.393-1.34c.29-.681 1.62-1.263 3.393-1.263zm0-1.947c1.306 0 2.615.396 3.495.91.143-.475.297-.813.506-1.2l-.803.124-.65-1.386-1.213.644-1.335-1.32-1.338 1.32-1.21-.644-.655 1.386-.803-.124c.21.387.36.725.509 1.2.883-.514 2.186-.91 3.497-.91z" fill="#fff" fill-rule="nonzero"/>
    <path d="M33.303 39.202v1.82l1.907.784c-1.414.735-3.043 1.333-4.918 1.817l.221.762c-1.077.313-2.794.637-4.597.637-1.802 0-3.521-.321-4.596-.637l.223-.762c-1.877-.484-3.502-1.082-4.915-1.817l1.907-.784v-1.82c1.403.645 3.193 1.168 5.494 1.375l.105.65c-.195.026-.443.05-.771.073.854.116 1.953.172 2.558.172.603 0 1.705-.056 2.557-.172a11.26 11.26 0 0 1-.774-.073l.105-.65c2.3-.207 4.088-.73 5.494-1.375zm-4.076 2.375c-.514.117-1.786.275-3.308.275-1.52 0-2.8-.156-3.31-.275l-.771 2.494c1.211.299 2.629.516 4.08.516 1.45 0 2.866-.217 4.082-.516l-.773-2.494zm3.68-1.73c-.828.319-1.912.652-3.469.973l.73 2.377a21.18 21.18 0 0 0 4.023-1.35l-1.285-.518v-1.482zm-13.973 0v1.482l-1.287.518a21.27 21.27 0 0 0 4.025 1.35l.73-2.377c-1.557-.323-2.641-.654-3.468-.973zm6.983-33.636c2.2 0 4.195 1.063 4.195 2.25l-.044.295-.878 5.044 4.16 2.425c.44.258.996.976 1.065 1.696h-.757c-.124-.72-.695-1.518-1.753-1.47-.961.052-1.533.636-2.095 1.47l-.145.219-.212.328h6.122c-.45.903-.876 1.862-.876 2.9v12.72c0 3.272-2.515 4.832-5.234 4.832h-.235l-.797-.001c-1.216.01-1.58.13-2.514 1.067-.937-.938-1.303-1.056-2.516-1.067h-1.03c-2.721 0-5.234-1.559-5.234-4.83V21.365c0-1.039-.425-1.997-.875-2.9h6.116l-.209-.328-.146-.22c-.564-.834-1.133-1.418-2.094-1.469-1.063-.049-1.63.75-1.756 1.47h-.759c.071-.72.625-1.436 1.068-1.696l4.16-2.426-.876-5.043-.047-.292c0-1.188 1.995-2.25 4.196-2.25zm-9.794.89c-.465.466-.898 1.071-.818 1.719.185 1.445 2.532 1.211 2.532 1.211-.474-.975-.262-1.557.79-2.058.322.776 2.844 1.822 3.007 3.355.25 2.396-2.583 3.851-5.076 5.202-2.741 1.481-1.737 3.094-.74 3.148.548 1.703-1.563 2.01-2.762 1.319.01.226.155 1.593 1.996 1.705-.153.54-.46.715-.94.893.359.268 1.41.309 1.967.309-.066.74-.868 1.333-1.875 1.435.08.224.525.584.929.696-1.087 1.083-4.011.37-4.604-.253-.278-.287-.613.12-.285.553.333.44 1.805.936 2.994.571.141.67-.092.92-.28 1.1 0 0 1.165.117 1.464.28-.114.5-.676.793-.875.988.197.17.433.569.518.875-.53.256-1.985.66-2.77-.23-.314-.356-.66-.13-.336.32 1.148 1.582 3.894 1.609 4.862 1.112.027 1.239-.508 1.494-1.153 2.005 1.982 2.285.676 4.316 2.08 6.32-2.647 0-4.3-1.442-4.763-2.792-.048.482-.306.898-1.011 1.041.058-.503-.1-1.014-.36-1.53-.53.43-1.506.53-2.783.584C9.281 34.52 5.185 32 6.805 28.65c.243-.504-.462-.825-.53-.312-.382 2.874-2.067 3.52-3.488 2.625.423-.467.603-.457.876-.883-.958.256-1.447-.44-1.69-1.311 2.6-.912 1.2-3.146 2.843-5.28-1.037.161-1.849.161-2.233-.873 3.799-1.81 3.767-5.61 8.133-7.598-2.4-1.784-1.756-3.453-.637-5.139 1.182 2.088 3.208 2.372 4.46 1.694-1.76-.64-2.42-2.81-3.485-3.443.666-.715 1.515-.74 2.505-.063.533-1.44 2.3-.966 2.564-.966zm22.156.964c.99-.676 1.842-.652 2.508.063-1.065.633-1.73 2.803-3.485 3.443 1.247.679 3.28.394 4.46-1.693 1.117 1.686 1.764 3.357-.637 5.138 4.366 1.99 4.334 5.788 8.133 7.598-.387 1.034-1.2 1.034-2.233.871 1.645 2.134.246 4.368 2.834 5.277-.246.871-.732 1.567-1.69 1.312.272.426.45.416.877.883-1.422.895-3.11.248-3.49-2.625-.068-.514-.773-.192-.532.311 1.624 3.35-2.471 5.871-1.024 8.328-1.277-.053-2.252-.153-2.787-.584-.258.516-.414 1.027-.36 1.53-.703-.143-.956-.561-1.01-1.04-.462 1.35-2.116 2.792-4.76 2.792 1.404-2 .093-4.031 2.078-6.316-.645-.51-1.18-.766-1.153-2.004.97.494 3.716.47 4.864-1.112.324-.45-.022-.674-.338-.321-.78.89-2.235.489-2.77.23.085-.306.32-.705.52-.875-.197-.197-.761-.487-.875-.988.301-.163 1.466-.28 1.466-.28-.187-.18-.416-.433-.28-1.1 1.192.368 2.661-.128 2.997-.571.326-.433-.007-.84-.28-.552-.593.622-3.517 1.335-4.604.253.402-.112.85-.472.93-.696-1.008-.1-1.812-.696-1.878-1.436.554 0 1.605-.038 1.965-.309-.482-.177-.786-.352-.941-.892 1.84-.112 1.994-1.48 1.999-1.706-1.202.691-3.313.384-2.76-1.319.994-.05 1.999-1.666-.742-3.148-2.49-1.35-5.329-2.805-5.076-5.202.165-1.532 2.685-2.579 3.006-3.355 1.053.502 1.265 1.083.79 2.059l.037.003c.3.022 2.324.123 2.493-1.215.082-.65-.355-1.255-.817-1.718.265 0 2.03-.474 2.565.966zm-1.298-.338c.912 1.951-.89 2.968-2.61 2.975-.094 0-.296-.014-.516-.032l-.268-.023c-.31-.028-.588-.056-.588-.056.178-.365.893-1.363.37-1.764-.418.391-.915.708-1.372 1.058-3.337 2.581 1.59 4.975 3.602 6.063 3.157 1.708 2.316 3.74.995 4.26.005.229.148.331.367.404.917.304 1.788-.353 2.522-.776-.043 1.275.047 2.499-1.362 3.202l.968.355c-.834.633-1.087.97-2.091 1.1.467.228 1.053.223 1.549.27-.127.353-.233.832-.494 1.148 2.055.246 2.882-.93 3.517-.883 1.35.102 1.27 2.657-2.07 2.662l.346.571s-.633.37-1.214.44c.221.183.438.424.625.609l-.533.46c1.36.243 1.75-1.207 2.632-.509 1.35 1.07-1.622 3.326-4.475 2.99.24.307.91.76 1.201.993-2.325 2.197-1.182 4.265-2.133 5.778 2-.134 3.483-1.603 3.834-3.194l.564.96c.202-.632.574-1.289.805-1.756.45.937 1.172.956 1.868.961-.158-2.243 2.658-4.498 1.422-7.058-.245-.513-.087-1.14.446-1.409 1.89-.958 1.014 3.022 2.904 3.144-.363-.455-.497-1.4-.548-1.482.063.017.14.046.227.08l.184.074c.456.177 1.06.36 1.377-.212-1.1-.601-1.418-1.506-1.593-2.414-.222-1.15-.319-1.68-.543-2.153-.228-.503-.603-.941-1.405-1.975.19.026 2.32.476 2.794.253-1.42-.873-2.169-1.837-2.875-2.838l-.249-.355c-1.037-1.486-2.144-3.04-5.327-4.49l.138-.103.274-.2c1.317-.964 2.456-1.857 1.482-3.746-1.535 1.844-4.453 1.207-6.027.35 1.56-.311 3.561-1.686 4.04-3.211-.59-.09-1.35.545-1.787.841-.21-.562-.29-1.22-.973-1.362zm-22.126-.005c-.546.113-.709.555-.86 1.016l-.077.23-.04.114c-.436-.296-1.197-.934-1.783-.844.474 1.528 2.48 2.9 4.037 3.212-1.576.856-4.492 1.493-6.026-.35-1.076 2.084.425 2.955 1.894 4.048-5.601 2.557-4.774 5.425-8.45 7.683.48.224 2.603-.226 2.793-.253-.798 1.034-1.17 1.472-1.403 1.976-.222.472-.324 1.004-.543 2.153-.172.907-.489 1.812-1.593 2.413.433.784 1.394.17 1.795.066-.053.083-.19 1.027-.55 1.482 1.888-.122 1.012-4.102 2.902-3.144.533.27.696.898.448 1.409-1.24 2.56 1.578 4.815 1.425 7.058.69-.005 1.408-.024 1.863-.961.236.467.603 1.124.805 1.756l.564-.96c.348 1.588 1.831 3.06 3.835 3.192-.955-1.516.19-3.584-2.132-5.779.287-.233.958-.686 1.196-.992-2.85.335-5.825-1.92-4.475-2.99.885-.699 1.27.751 2.634.508l-.533-.46c.188-.185.402-.428.623-.608-.581-.07-1.214-.44-1.214-.44l.346-.572c-3.34-.005-3.425-2.56-2.068-2.662.638-.046 1.462 1.127 3.517.883-.262-.316-.365-.795-.491-1.148.499-.046 1.08-.041 1.55-.27-1.005-.131-1.26-.467-2.095-1.102l.97-.353c-1.41-.7-1.323-1.927-1.366-3.202.737.423 1.603 1.083 2.527.776.219-.073.36-.175.365-.404-1.319-.518-2.165-2.552.994-4.26 2.014-1.087 6.94-3.481 3.6-6.065-.455-.35-.956-.664-1.377-1.058-.52.401.197 1.399.375 1.763 0 0-1.11.112-1.377.112-1.717-.007-3.517-1.024-2.605-2.973zm18.961 21.503H18.015v4.866c0 1.35.547 2.42 1.476 3.104l.292-.596h.408l-.393.8c.107.064.218.122.333.176l.479-.976h.41l-.546 1.114h-.015a5.373 5.373 0 0 0 1.912.329c2.167 0 2.74.087 3.546.888.802-.8 1.376-.888 3.546-.888.71 0 1.352-.12 1.919-.334l.547-1.11h.413l-.425.867c1.19-.652 1.904-1.827 1.904-3.374l-.005-4.866zm-11.13 7.374-.546 1.114h-.414l.55-1.114h.41zm.83 0-.542 1.114h-.416l.547-1.114h.411zm3.325 0-.55 1.114h-.41l.546-1.114h.414zm.827 0-.545 1.114h-.415l.552-1.114h.408zm-1.659 0-.547 1.114h-.414l.55-1.114h.411zm5.402 0-.547 1.114h-.414l.547-1.114h.414zm-7.061 0-.548 1.114h-.413l.547-1.114h.414zm.83 0-.547 1.114h-.416l.547-1.114h.416zm-4.164-7.28 1.557.58c.092-.04.204-.071.306-.086l.365-.428c.187.07.258.436.258.436 1.218.168 1.916 1.133 2.194 2.29l-.297.096a.315.315 0 0 0 .26.154l1.596.097c.23.02 1.208-.491 2.135-.005.409-.328 1.435-.43 2.104.243.294.29 1 1.098 1.148 1.263l.255.3c.112.126.207.257.294.403-.912 1.275-1.707.37-2.29-.45-.292-.409-.48-1.044-.728-1.065a.445.445 0 0 0-.287.056c.153.51.144 1.352.618 1.754.212.182.25.323.185.766l-.302 1.988h-1.14l.381-2.01a.983.983 0 0 0-.218.348l-.664 1.66H27.57l.761-1.82c.056-.146.129-.263.085-.346-.116-.224-.367-.445-.494-.732-.36.287-1.286.518-2.213.43l-.678-.073c-.423-.041-.448-.07-.63.207-.178.268-.421.195-.586.148l-1.328-.287c-.146-.026-.163.017-.214.127l-.153.33c-.08.166.021.249.167.368-.08.356-.383.704-.541.865l-.08.079a1.235 1.235 0 0 1-.016.015l-.34.69h-.414l.491-.994-.243-.29c-.306-.365-.245-.688-.129-.932l.342-.702-.797.676-.364-.762c-.18-.377-.09-.764.202-.988l.895-.688c.138-.11.243-.141.471-.11l1.049.127c.024-.256.075-.58.177-.915-.16.146-.535-.036-.647.056l-.255.134c-.187.095-.316.1-.433-.054l-.226-.297c-.13-.153-.139-.277-.025-.438.173-.175.779-1.033.779-1.033l-1.168-1.18zm7.518 5.842c.178.238.316.34.243.56l-.71 1.695h.443l.71-1.751c.024-.061.058-.088.085-.137a5.054 5.054 0 0 1-.771-.367zm-5.29-5.377-.374.467-1.022-.377.803.66-.871 1.014c-.09.102-.075.231-.032.285l.088.112c.122.15.192.114.333.034l.202-.107c.131-.095.97.221 1.021-.472.032.172-.016.41-.08.672l-.081.324c-.108.441-.192.906.008 1.235l.504.82-1.644.024c-.18 0-.273.107-.324.207l-.43.9c-.112.234-.105.472.036.637l.29.326s.24-.202.316-.464l-.127-.134c-.107-.105-.11-.2-.05-.329l.264-.55c.102-.214.205-.26.438-.206l1.33.287c.098.024.256.073.35-.09.161-.29.448-.31.742-.265.73.11 2.415.284 3.016-.419.706.937 2.085.937 1.995 1.428l-.292 1.611h.442l.263-1.647c.032-.192.146-.457-.058-.604-.085-.073-.127-.102-.316-.43-.251-.44-.239-1.097-.482-1.664.231-.268.482-.36.696-.307.483.117.615.954 1.308 1.64-.078-.304-.112-.635-.275-.927 0 0 .48.372.603.808.078.275.158.472.404.598.163.059.355-.02.552-.253 0 0-.457-.647-.79-1.07-.455-.584-1.068-1.163-1.9-1.102-.262.029-.518.143-.756.287-.944-.528-1.678.031-1.973.031l-1.773-.107c-.347-.022-.62-.423-.62-.423-.046-1.499-1.25-2.097-1.663-2.097 0 0 .039-.27-.07-.363zm9.164-18.052c1.754 1.197 6.391 1.844 8.473 1.277-1.148.769-3.92.696-4.599.555.917.892 2.277 1.797 3.625 2.692l.62.412c1.745 1.166 3.35 2.31 3.803 3.382-1.201-1.319-1.982-1.56-3.016-1.9.82 1.221 1.554 2.297 2.065 3.552 1.316 2.851 3.072 2.888 3.186 5.24-.6-1.822-1.814-2.284-2.658-3.481.146.762.221 1.61.19 2.589a8.235 8.235 0 0 1-.582 2.834c.085 1.163-.017 3.148-1.35 4.46.905-1.146 1.1-3.01 1.02-3.737-.996 1.911-3.726 4.519-5.231 6.377l-.226.284.174-.277c1.532-2.34 4.818-5.057 5.545-8.175-.486.504-1.067.555-2.177.487 1.217-.149 1.9-.446 2.328-1.253.063-.421.105-.867.122-1.343.039-1.283-.385-2.81-1.272-4.484.01 1.048-.822 2.7-2.678 2.973 1.663-.728 2.646-2.37 2.111-3.961a24.158 24.158 0 0 0-1.177-1.71c-.219-.28-.433-.553-.645-.803.224.81-.756 1.647-1.413 1.788.358-.348 1.119-1.477-.642-3.362a8.156 8.156 0 0 1 1.45.883c-3.203-3.46-5.835-3.557-7.046-5.3zm-12.982-.003c-1.21 1.742-3.843 1.84-7.044 5.3.414-.322.959-.65 1.45-.884-1.763 1.885-1 3.012-.645 3.36-.656-.141-1.636-.978-1.413-1.788-.209.25-.423.523-.642.803a24.38 24.38 0 0 0-1.177 1.71c-.535 1.589.445 3.23 2.114 3.96-1.856-.274-2.685-1.924-2.68-2.972-.886 1.674-1.31 3.201-1.27 4.484.017.477.058.924.119 1.343.426.807 1.109 1.104 2.328 1.253-1.107.07-1.69.017-2.175-.487.757 3.243 4.28 6.05 5.718 8.452-1.437-1.868-4.412-4.652-5.455-6.664-.08.728.114 2.591 1.019 3.737-1.333-1.311-1.435-3.296-1.35-4.46a8.07 8.07 0 0 1-.581-2.834 11.78 11.78 0 0 1 .192-2.588c-.842 1.197-2.058 1.659-2.656 3.481.114-2.35 1.87-2.387 3.184-5.238.508-1.248 1.245-2.324 2.065-3.547-1.041.338-1.82.579-3.021 1.897.856-2.019 5.788-4.289 8.045-6.486-.678.144-3.448.214-4.599-.555 2.085.567 6.723-.08 8.474-1.277zm1.938 21.617-.778.594c-.248.19-.238.46-.088.754l.149.277.386-.292-.09-.192c-.063-.134-.058-.27.051-.355l.555-.419c.156-.111.204-.119.37-.1l1.17.246s-.176-.257-.236-.52l-1.1-.146c-.158-.02-.25.048-.389.153zm.35.633-.423.314c-.092.068-.138.077-.05.253l.119.24.092-.185c.098-.2.179-.316.404-.355l.106-.012H23.3l-1.267-.297c-.12-.029-.221-.039-.319.042zm1.622-14.63H17.58c.238.638.437 1.328.437 2.02v7.42h11.74c-.022-.27.051-.876.051-.876-.513-.202-.756-.808-.608-1.481l-1.177 1.029c-.53.464-.983.567-1.622.384l-4.51-1.396c-.085.26-.345.707-.76.598-.509-.134-.487-.667-.341-.912-.134-.11-.112-.363.056-.44-.166-.088-.127-.336.005-.392-.107-.047-.149-.197-.132-.334l-.277-.002c-.7-.005-.486-1.336.25-1.02l.56.275.097-3.343 1.318-1.124.696 1.477-1.14 3.187c.916-.158 1.252.214 1.125.536l2.9.328a.953.953 0 0 0 .839-.345l.649-.75a1.22 1.22 0 0 1-.832-.934c-.934-.214-1.306-1.024-1.177-1.893a1.59 1.59 0 0 1-.538-.878c-.783-.16-1.444-.574-1.853-1.134zm10.924.002h-5.758c-.297.41-.737.74-1.257.952.022-.007.046-.015.065-.024.26.284.727.45 1.143.45-.2.455-.148 1.124.166 1.464-.433.436-.226 1.428.36 1.733-.3.875.316 1.367 1.14 1.34-.827.535-.778 1.679.263 1.645l-.314.248c-.27.005-.35.007-.545-.175-.002.428.41.632.796.703 0 0-.151.574-.105 1.102h.74c-.207-.287-.419-1.311-.086-1.69 0 0 .239 1.318.514 1.69h1.111c-.228-.268-.474-1.19-.26-1.645 0 0 .33 1.266.722 1.645h.864v-7.42c0-.605.15-1.21.353-1.778l.088-.24zm-7.497 6.2a.816.816 0 0 1-.428.058h-.012c.14.514.182 1.336-.117 1.8l.146.044c.185.054.382.09.584.086.355-.601.124-1.565-.173-1.988zm.786-.647-.39.382c.375.399.713 1.406.448 2.06.093-.056.182-.116.27-.202l.423-.389c.163-.735-.357-1.506-.751-1.851zm-2.206.583c.06.412-.07 1.193-.35 1.572l.637.185c.29-.448.348-1.233.26-1.688l-.547-.069zm-1.14-.138c.045.406-.052 1.036-.322 1.394l.676.195c.25-.37.375-1.146.309-1.511l-.664-.078zm-1.14-.146c-.048.435-.09.817-.26 1.224l.645.187c.238-.346.333-.964.282-1.328l-.666-.083zm7.993-1.377s.477 1.353 1.64 1.168c-.443.732.186 1.396.858 1.17l.112.336c-.774.343-1.666-.151-1.491-1.112-.771-.078-1.248-.825-1.12-1.562zm-.627.951s.503 1.543 1.476 1.295l.114.352c-.817.268-1.902-.525-1.59-1.647zm-1.951-.783-.501.491c.423.334.888 1.149.793 1.84l.471-.434c.044-.143.112-.275.197-.389-.7-.102-1.028-.966-.86-1.406l-.1-.102zm-7.396.863c-.012.19.124.414.433.314.25-.083.386-.044.515.107-.23.334-.2.881.42 1.04.09-.242.166-.602.203-.85-.219-.182-.355-.474-.518-.577-.178-.111-.448-.255-1.053-.034zm1.021-.14s.489.257.662.28c.165.023.25-.19.124-.244-.173-.066-.786-.037-.786-.037zm-1.547-.439c-.17 0-.238.224-.085.326.085.058.427.033.624.012l.124-.014.018-.003c-.245-.104-.493-.316-.68-.32zm1.997-3.946-.851.728-.187 3.23.55-2.002c.024-.146.143-.129.116.022l-.289 2.108 1.094-3.135-.433-.951zm9.51 2.068s.262 1.346 1.403 1.373l-.007.372c-.859-.015-1.73-.755-1.396-1.745zm-5.147-1.99a3.482 3.482 0 0 1-.994.146c-.107 0-.212-.01-.317-.017.027.002.052.01.08.012.132.438.477.808 1.068.91l-.058.37a1.96 1.96 0 0 1-.62-.217c-.025.601.287 1.04.78 1.222a1.969 1.969 0 0 1 .025-.336s.333 1.263 1.18 1.367l.194-.19c-.292-.494-.316-1.038-.068-1.513-.187-.45-.221-.813-.15-1.104a1.628 1.628 0 0 1-1.12-.65zm3.687-1.017c-.007.079-.067 1.064 1.406 1.367l-.01.373c-.818-.014-1.65-.687-1.432-1.616l.036-.124zm-1.821-4.97-2.86 1.557-2.865-1.558-2.333 1.356c.854.15 1.59 1.2 2.196 2.143l.068.11h.64l.005.111c.01.107.032.22.068.329.097.304.297.623.613.88.365.295.897.512 1.603.512 1.527 0 2.22-.99 2.286-1.72l.002-.113h.645l.068-.109c.603-.947 1.34-1.995 2.196-2.143l-2.332-1.356zM6.307 9.376c.82.476.393 1.017.564 1.077.211.083.046-.574.95-.545.088.971-.848.998-.695 1.156.185.192.428-.557 1.114-.18-.015.78-.647 1.214-1.301 1.03.102 1.493 1.469 1.21 2.488 2.89-2.153 1.106-3.13 3.033-4.458 4.364-.435-.311-1.185-1.693-1.185-1.693-1.437 1.112-2.444.005-2.444.005.494-.504.513-.888 1.267-1.584-.479-.166-.849-.623-1.036-1.044 1.224-.177 4.46-1.538 7.124-.43-1-.95-1.892-1.064-1.98-2.429-.41.297-1.111.465-1.5-.246.272-.81.963-.153 1.06-.377.136-.311-.878.095-1.09-.958.783-.268 1.022.372 1.16.224.132-.141-.498-.409-.038-1.26zm39.225 0c.462.849-.166 1.119-.037 1.26.141.148.375-.494 1.16-.224-.216 1.053-1.225.647-1.089.958.097.224.79-.433 1.065.377-.394.709-1.092.54-1.505.244-.085 1.362-.98 1.484-1.978 2.43 2.661-1.107 5.898.254 7.117.429-.185.423-.555.88-1.034 1.05.754.69.774 1.074 1.267 1.58 0 0-1.009 1.107-2.444-.005 0 0-.749 1.382-1.187 1.693-1.325-1.333-2.3-3.26-4.455-4.365 1.016-1.678 2.383-1.401 2.49-2.89-.654.185-1.289-.246-1.301-1.03.683-.376.926.368 1.114.181.153-.153-.786-.185-.696-1.156.905-.031.74.628.949.545.172-.06-.253-.598.564-1.077zm-18.445 7.087v.8c-.275-.333-.808-.267-.808-.267v1.166c.005.088.036.578.22.8h-1.154c.2-.244.22-.813.22-.813v-1.156s-.536-.066-.81.268v-.798h2.332zM2.566 15.172c.433.32.78.467 1.223.523-.676.562-1.165 1.041-1.513 1.572.657.16 1.022-.251 2.42-1.093-.143.329-.44 1.472.26 2.346.8-1.599 1.903-2.969 2.793-3.56.2-.126-.107-.348-.652-.42-1.659-.317-3.605.386-4.531.632zm42.18-.633c-.55.073-.85.295-.656.421.89.591 1.99 1.961 2.79 3.56.702-.874.408-2.02.26-2.348 1.4.844 1.768 1.255 2.417 1.092-.345-.53-.836-1.007-1.508-1.571.44-.054.79-.2 1.221-.521-.924-.246-2.867-.947-4.524-.633zm-12.713 2.767c.616 0 .944.309 1.032.615h-2.111c.145-.28.496-.615 1.08-.615zm-12.233 0c.586 0 .932.335 1.082.615H18.77c.087-.306.416-.615 1.031-.615zm2.772-8.265.818 4.712 2.286 1.202v-4.858L22.572 9.04zm6.691 0-3.103 1.056v4.858l2.284-1.202.82-4.712zm-.92 3.25s0 .205-.478.53c-.426.293-1.18.609-1.18.609v-.501l1.659-.638zm-4.849 0 1.662.635v.501s-.754-.313-1.18-.608c-.482-.323-.482-.528-.482-.528zm-.226-1.25 1.885.674v.5s-.754-.315-1.18-.607a4.974 4.974 0 0 1-.683-.544l-.022-.023zm5.3 0-.051.05a5.31 5.31 0 0 1-.655.52c-.423.291-1.18.605-1.18.605v-.501l1.885-.674zm.177-1.227s-.401.327-.88.655c-.426.294-1.18.608-1.18.608v-.503l2.06-.76zm-5.657 0 2.065.76v.503s-.754-.314-1.18-.608c-.481-.328-.885-.655-.885-.655zm2.831-2.851c-1.775 0-3.106.581-3.393 1.263l3.393 1.34 3.388-1.34c-.287-.682-1.615-1.263-3.388-1.263zm0-4.858 1.337 1.328 1.38-.718.717 1.528 1.371-.153c-.76 1.187-.987 2.54-.987 2.54-.752-.606-2.116-1.17-3.818-1.17-1.703 0-3.07.564-3.824 1.17 0 0-.223-1.353-.987-2.54l1.372.153.717-1.528 1.384.718 1.338-1.328zm0 .683L24.58 4.11l-1.211-.644-.655 1.386-.802-.124c.21.387.362.725.508 1.2.88-.514 2.187-.91 3.498-.91 1.306 0 2.614.396 3.495.91.143-.475.299-.813.505-1.2l-.805.124-.647-1.386-1.21.644-1.338-1.32zm-4.171-.175s.581.26.674.438a.366.366 0 0 1-.151.491.357.357 0 0 1-.487-.153c-.097-.175-.036-.776-.036-.776zm8.342 0s.063.6-.034.776a.36.36 0 0 1-.489.153.368.368 0 0 1-.15-.491c.094-.178.673-.438.673-.438zM24.4 1.667s.43.47.45.669a.362.362 0 1 1-.722.06c-.017-.197.272-.73.272-.73zm3.043 0s.291.53.272.73a.366.366 0 0 1-.394.33.365.365 0 0 1-.328-.391c.014-.2.45-.67.45-.67z" fill="#14161c"/>
    <path d="M22.886 30.61c-.075 0-.14.072-.14.167 0 .093.065.168.14.168.078 0 .146-.075.146-.168-.002-.095-.068-.168-.146-.168z" fill="#14161c"/>
    <path d="M68.349 29.543v-7.73h4.564V19h-12.45v2.813h4.563v7.73h3.323zM77.566 19h-3.323v10.543h3.323V19zm2.431 0v10.543h3.058v-5.825l5.693 5.825h2.836V19h-3.057v5.781l-5.56-5.78h-2.97zm18.118 6.556 3.833 3.987h4.276l-5.34-5.493 5.14-5.05h-4.031l-3.878 3.965h-.886V19h-3.212v10.543h3.212v-3.987h.886zm14.719-6.844c-4.32 0-6.912 2.437-6.912 5.582s2.592 5.582 6.912 5.582c4.298 0 6.89-2.437 6.89-5.582s-2.592-5.582-6.89-5.582zm0 8.594c-2.15 0-3.523-1.284-3.523-3.012s1.374-2.99 3.523-2.99c2.127 0 3.522 1.262 3.522 2.99 0 1.728-1.395 3.012-3.522 3.012zM131.905 19H121.25v10.543h3.211v-3.677h6.98v-2.325h-6.98v-1.86h7.444V19zM144 19h-10.657v10.543h3.213v-3.677h6.98v-2.325h-6.98v-1.86H144V19z" fill="#b0b5c1" fill-rule="nonzero"/>
  </g>
</svg>
