<svg id="google-pay" viewBox="0 0 68 27" xmlns="http://www.w3.org/2000/svg">
  <path d="M32.141 13.163v7.895h-2.549V1.533h6.628c1.614 0 3.144.594 4.334 1.697 1.19 1.02 1.784 2.547 1.784 4.16s-.595 3.056-1.784 4.16c-1.19 1.103-2.635 1.698-4.334 1.698l-4.079-.085zm0-9.253v6.79h4.249c.935 0 1.87-.339 2.464-1.018a3.254 3.254 0 0 0 .085-4.669l-.085-.085c-.68-.679-1.53-1.103-2.464-1.018H32.14zM48.201 7.305c1.87 0 3.314.51 4.419 1.528 1.104 1.019 1.614 2.377 1.614 4.075v8.15h-2.38V19.19h-.084c-1.02 1.528-2.464 2.292-4.164 2.292-1.444 0-2.719-.424-3.739-1.273-.934-.85-1.53-2.038-1.53-3.311 0-1.358.51-2.462 1.53-3.31 1.02-.85 2.465-1.19 4.164-1.19 1.53 0 2.72.255 3.654.85v-.595c0-.849-.34-1.697-1.02-2.207a3.704 3.704 0 0 0-2.464-.934c-1.444 0-2.55.595-3.314 1.783l-2.21-1.358c1.36-1.783 3.145-2.632 5.524-2.632zm-3.229 9.678c0 .679.34 1.273.85 1.613.595.424 1.274.679 1.954.679 1.02 0 2.04-.425 2.804-1.189.85-.764 1.275-1.697 1.275-2.716-.765-.594-1.87-.934-3.314-.934-1.02 0-1.87.255-2.55.764-.679.425-1.019 1.019-1.019 1.783zM68 7.73 59.588 27h-2.55l3.144-6.706-5.523-12.48h2.72l3.993 9.593h.085l3.909-9.592H68zM1.21 6.117l.141-.277C3.226 2.28 6.98.117 11.004.009l.319-.004C14.042-.08 16.76 1.023 18.8 2.89l-3.229 3.226a6.328 6.328 0 0 0-4.333-1.698c-2.89 0-5.524 1.868-6.288 4.584l-.095.29c-.383 1.26-.383 2.57 0 3.766l.095.274c.85 2.716 3.399 4.669 6.288 4.669 1.53 0 2.804-.425 3.823-1.104l.218-.15c1.066-.774 1.753-1.972 1.992-3.246h-6.033v-4.33h10.621c.085.765.17 1.529.17 2.293 0 3.396-1.19 6.282-3.314 8.234-1.87 1.698-4.418 2.717-7.477 2.717-4.249 0-8.073-2.377-10.027-6.197-1.615-3.226-1.615-6.961 0-10.102z"/>
</svg>
