<svg id="tinkoff-pay" viewBox="0 0 74 24" xmlns="http://www.w3.org/2000/svg">
  <path d="M13.601 0c1.763 0 3.73.927 4.353 1.61l-.2.632s2.444-.175 3.787.975c0 0 1.418 1.003 1.64 2.285.556.027 2.623.74 3.833 1.616.699 1.624.167 4.399-.785 5.45l1.193 1.848c-.327.557-1.557 1.832-2.872 1.957-.296.44.552 2.196.552 2.196-1.14 1.846-3.187 2.716-5.898 3.114l.31.894c-.613.81-3.027 1.508-5.996 1.413-3.511.146-5.687-1.413-5.687-1.413l.269-.894c-1.954 0-5.225-1.668-5.711-3.186 0 0 1.148-1.402.556-2.108C1.63 16.264.306 15.214 0 14.18l1.215-1.642C-.71 10.904.306 7.118.306 7.118c1.21-.876 3.297-1.749 3.854-1.775.556-1.155 1.071-1.641 2.2-2.357 1.13-.715 3.32-.744 3.32-.744l-.282-.632C10.117.945 12.048 0 13.6 0zm3.326 18.702s-2.17.62-3.216.62c-.676 0-1.81-.26-2.525-.443l-.656-.177-1.034 3.132.183.076c.505.197 1.955.683 4.017.707 1.94-.022 3.356-.454 3.943-.67l.3-.118zM9.978 3.591c-1.555-.39-2.727.143-3.74.877-1.017.735-1.418 1.688-1.329 2.03-.664-.268-1.965.343-2.903.853l-.62.348s-.672 3.235 1.045 4.487c-.089.879-.719 1.933-1.045 2.13.566.88 1.766 1.12 2.274.897.85 1.158.44 2.726-.033 3.226 1.32 1.173 4.47 1.665 5.393 1.739 0 0-.642-1.48-1.039-2.894l-.136-.523c-.79-3.361-.622-7.379-.515-8.932l.053-.658S5.042 9.853 6.346 16.32l.049.234c.05.235.102.468.153.689l.33 1.323c-.217-.106-.747-.042-1.721-.527.417-.442.238-3.066-.992-4.353 0 0-.585.266-1.014.09.289-.175.65-1.29.65-2.143C2.583 10.916 2.544 9.695 2.6 8.88l.026-.322c.682-.436 1.906-1.177 3.446-.53-.04-.367.065-1.344.487-2.028 0 0 .514-.88 1.676-1.156l.257-.076c.743-.259 1.207-.792 1.393-1.042zm11.207.877c-1.015-.734-2.187-1.267-3.741-.877 0 0 .582.976 1.743 1.253l.257.073C20.424 5.25 20.863 6 20.863 6l.13.238c.314.656.393 1.464.357 1.79 1.347-.566 2.453-.07 3.165.356l.28.174c.07.777.217 2.256-1.174 3.074 0 .853.361 1.968.65 2.142-.334.137-.762.007-.936-.058l-.078-.031c-1.23 1.287-1.41 3.91-.992 4.353-.974.485-1.504.42-1.721.527 0 0 .249-.924.46-1.9l.071-.346.1-.53c.923-5.214-.57-7.821-1.016-8.46l-.12-.158s.54 5.324-.463 9.59c-.241 1.029-.683 2.204-.95 2.874l-.224.543c.922-.074 4.072-.566 5.393-1.739-.472-.5-.883-2.068-.033-3.226.508.223 1.708-.017 2.274-.896-.326-.198-.956-1.252-1.046-2.131 1.375-1.002 1.22-3.272 1.102-4.14l-.056-.347c-.868-.498-2.693-1.536-3.524-1.201.09-.342-.311-1.295-1.327-2.03zm-2.238 3.275H8.475c.081.11.411.652.53.964.118.313.205.628.209.823l.13 3.395.06 2.008c.009.475.116 1.105.503 1.62.394.524 1.06.905 2.13.905h.753c.075 0 .126.018.166.046.044.03.084.074.124.139.04.065.082.156.122.242l.057.123.065.124c.016.021.081.106.142.144a.45.45 0 0 0 .245.065.471.471 0 0 0 .249-.064c.02-.013.04-.03.06-.05l.08-.095c.048-.082.097-.174.133-.254l.057-.127.059-.11a.432.432 0 0 1 .12-.138.275.275 0 0 1 .163-.045h.752c1.07 0 1.737-.381 2.131-.905.387-.515.494-1.145.503-1.62.008-.404.023-.912.041-1.456l.147-3.874.014-.203c.028-.19.103-.443.198-.693.118-.312.448-.853.53-.964zm-1.923 1.27a1.595 1.595 0 0 0-.061.393l-.123 3.372c-.012.39-.021.768-.028 1.115l-.012.926c0 .542-.177.893-.412 1.106a1.206 1.206 0 0 1-.85.299l-.713-.015c-.22.002-.432.022-.622.073-.184.05-.353.13-.49.254-.32-.31-.835-.448-1.363-.424l-.54.01c-.561.018-1.129-.44-1.129-1.303 0-.717-.023-1.678-.053-2.614l-.09-2.466s-.016-.157-.036-.316l-.034-.221-.04-.19zm-3.24-7.88-2.988.888.444 4.351s1.478-.293 2.598-.29c.66.003 1.445.107 1.966.19l.579.1.243-4.35-2.841-.89zm26.44 4.652c.952 0 1.826.05 2.751.38 1.671.582 2.905 2.049 2.905 4.073 0 2.024-1.26 3.517-2.956 4.048-.874.278-1.774.303-2.7.303h-3.933v3.239h-3.727V5.785h7.66zm15.627 0 5.014 12.043h-4.19l-.72-1.746h-5.657l-.694 1.746h-4.216l5.013-12.043h5.45zm7.866 0 3.059 5.49h.129l3.033-5.49H74l-5.244 8.551v3.492h-3.857V14.64l-5.527-8.855h4.345zM53.28 8.568h-.283l-1.774 4.858h3.83l-1.773-4.858zm-13.596.127H36.29v3.06h3.394c.694 0 1.054-.05 1.362-.15.643-.203.977-.785.977-1.392 0-.557-.283-1.088-.874-1.316-.334-.126-.745-.202-1.465-.202z" fill-rule="nonzero"/>
</svg>
