<svg id="visa-mir" viewBox="0 0 128 15" xmlns="http://www.w3.org/2000/svg">
  <path d="M25.084 2.286c1.202 0 2.173.254 2.786.483l-.423 2.448-.28-.12a5.546 5.546 0 0 0-2.314-.435c-1.226 0-1.776.494-1.788.977 0 .53.665.88 1.75 1.399 1.79.808 2.62 1.796 2.608 3.087-.025 2.351-2.147 3.87-5.405 3.87-1.394-.012-2.735-.29-3.464-.603l.435-2.544.409.181c1.01.422 1.674.603 2.913.603.895 0 1.853-.35 1.865-1.11 0-.465-.361-.813-1.406-1.315l-.504-.239c-1.126-.555-2.445-1.44-2.421-2.932.013-2.206 2.173-3.75 5.24-3.75zm-6.53.206-1.942 11.335h-3.105l1.942-11.335h3.105zm17.277 0 2.505 11.335H35.46l-.371-1.7h-3.987l-.652 1.7h-3.258l4.612-10.395c.32-.735.883-.94 1.623-.94h2.403zm-30.783 0c.677.024 1.226.229 1.405.953L7.54 8.654l.333 1.567 3.04-7.73h3.285L9.315 13.816H6.031L3.264 3.966A13.098 13.098 0 0 0 0 2.721l.051-.23h4.997zm28.815 4.04-.217-.977-.655 1.715-.994 2.541h2.581l-.715-3.28z" fill-rule="nonzero"/>
  <path d="M56.786 0c1.448 0 2.802.397 3.954 1.088-1.837 1.547-3.002 3.846-3.002 6.412s1.165 4.865 3.003 6.413A7.68 7.68 0 0 1 56.786 15c-4.21 0-7.623-3.358-7.623-7.5 0-4.142 3.413-7.5 7.623-7.5zm9.527 0c4.21 0 7.623 3.358 7.623 7.5 0 4.142-3.413 7.5-7.623 7.5a7.671 7.671 0 0 1-3.954-1.088c1.837-1.547 3.002-3.846 3.002-6.412s-1.165-4.865-3.003-6.413A7.68 7.68 0 0 1 66.313 0zM61.55 1.645c1.742 1.375 2.858 3.487 2.858 5.855 0 2.368-1.116 4.48-2.858 5.855C59.807 11.981 58.69 9.87 58.69 7.5c0-2.345 1.094-4.438 2.806-5.813z"/>
  <path d="m91.334 4.837 1.42 4.668.122.408h.287l1.56-5.076c.403-1.291 1.31-1.427 1.882-1.436l4.03.001v11.019h-3.806V7.928h-.256l-2.121 6.493h-2.864l-2.122-6.498h-.255v6.498h-3.806V3.402h4.185l.158.008c.5.044 1.227.277 1.586 1.427zm14.767-1.435v6.499h.303l2.581-5.344a2.046 2.046 0 0 1 1.561-1.154h3.692V14.42h-3.886V7.923h-.304l-2.53 5.343c-.501 1.059-1.62 1.155-1.62 1.155h-3.683V3.402h3.886zm21.568 5.236c-.52 1.4-2.11 2.417-3.904 2.496l-.225.005h-4.075v3.282h-3.695V8.638h11.899zm-3.951-5.236c3.133 0 4.647 2.515 4.207 4.554h-7.622c-2.306 0-4.533-2.1-4.727-4.554h8.142z" fill-rule="nonzero"/>
</svg>
