<svg id="visa-mir" viewBox="0 0 71.526 33.528" xmlns="http://www.w3.org/2000/svg">
  <path d="M24.942 2.303c1.194 0 2.16.255 2.77.486l-.42 2.466-.28-.121a5.452 5.452 0 0 0-2.3-.437c-1.22 0-1.766.497-1.779.983 0 .535.662.887 1.742 1.41 1.779.814 2.604 1.81 2.592 3.11-.025 2.368-2.135 3.9-5.375 3.9-1.385-.013-2.72-.293-3.443-.608l.432-2.564.406.183c1.004.425 1.665.607 2.897.607.89 0 1.843-.353 1.855-1.118 0-.468-.36-.819-1.398-1.324l-.502-.242c-1.12-.559-2.43-1.45-2.407-2.953.013-2.223 2.16-3.778 5.21-3.778zm-6.493.207L16.518 13.93H13.43L15.36 2.51h3.088zm17.178 0 2.49 11.419H35.26l-.369-1.713h-3.964l-.648 1.713h-3.24l4.586-10.471c.318-.741.878-.948 1.614-.948h2.389zm-30.608 0c.673.024 1.22.23 1.397.96l1.08 5.248.33 1.579 3.025-7.787h3.265L9.262 13.917H5.997L3.246 3.995A12.92 12.92 0 0 0 0 2.741l.05-.23H5.02zm28.65 4.07-.215-.984-.65 1.728-.989 2.56h2.567L33.67 6.58z" fill-rule="nonzero"/>
  <path d="M54.474 0c1.44 0 2.786.4 3.931 1.096a8.47 8.47 0 0 0-2.984 6.46 8.47 8.47 0 0 0 2.985 6.46 7.561 7.561 0 0 1-3.932 1.095c-4.186 0-7.58-3.383-7.58-7.555 0-4.173 3.394-7.556 7.58-7.556zm9.473 0c4.186 0 7.58 3.383 7.58 7.556 0 4.172-3.394 7.555-7.58 7.555-1.44 0-2.786-.4-3.931-1.096A8.47 8.47 0 0 0 63 7.555a8.47 8.47 0 0 0-2.985-6.46A7.561 7.561 0 0 1 63.947 0zm-4.736 1.658a7.533 7.533 0 0 1 2.842 5.898 7.535 7.535 0 0 1-2.842 5.898 7.533 7.533 0 0 1-2.843-5.898 7.532 7.532 0 0 1 2.79-5.857z"/>
  <path d="m22.837 23.873 1.411 4.703.122.41h.286l1.55-5.113c.401-1.3 1.303-1.437 1.872-1.447l4.007.002v11.1H28.3v-6.542h-.253l-2.11 6.542h-2.848l-2.11-6.547h-.253v6.547H16.94v-11.1l4.162-.001.157.008c.498.044 1.22.28 1.577 1.438zm14.683-1.445v6.546h.301l2.567-5.383a2.033 2.033 0 0 1 1.552-1.163h3.67v11.1h-3.864V26.98h-.302l-2.516 5.383c-.498 1.067-1.61 1.164-1.61 1.164h-3.662v-11.1h3.864zm21.445 5.274c-.518 1.41-2.098 2.434-3.882 2.514l-.224.005h-4.052v3.307h-3.674v-5.826h11.832zm-3.929-5.274c3.116 0 4.621 2.533 4.184 4.586h-7.58c-2.292 0-4.507-2.115-4.7-4.586h8.096z" fill-rule="nonzero"/>
</svg>
