<svg id="yandex-pay" viewBox="0 0 68 24" xmlns="http://www.w3.org/2000/svg">
  <path d="M32.806 4.285v14.726h-3.055V4.285h3.055zm3.898 7.127c.466-.167.843-.441 1.084-.822.24-.38.376-.883.376-1.508 0-.853-.241-1.477-.738-1.888-.481-.411-1.264-.624-2.302-.624H31.24V4.285h3.747c2.122 0 3.702.396 4.74 1.203 1.04.792 1.55 1.995 1.55 3.594 0 1.188-.255 2.132-.767 2.848-.511.716-1.234 1.233-2.152 1.553-.918.32-2.061.487-3.386.487h-3.732v-2.314h3.747c.663.015 1.234-.076 1.716-.244zm16.927 4.996c0 .442.015.868.03 1.295.015.426.06.868.105 1.31h-2.934l-.087-.33a9.434 9.434 0 0 1-.034-.143 4.16 4.16 0 0 1-.12-.594h-.105a7.476 7.476 0 0 1-.843.579c-.316.198-.707.35-1.174.457-.466.122-1.038.183-1.7.183-1.174 0-2.107-.29-2.815-.868-.707-.58-1.053-1.401-1.053-2.452 0-.838.24-1.508.707-2.025.467-.518 1.204-.914 2.182-1.143.979-.228 2.273-.365 3.838-.365h.963v-.426c0-.366-.09-.67-.286-.914-.196-.244-.466-.411-.843-.503-.376-.091-.812-.137-1.354-.137-.557 0-1.114.046-1.686.137a9.518 9.518 0 0 0-1.535.366 7.644 7.644 0 0 0-1.113.457V9.084c.466-.244 1.113-.457 1.941-.625.828-.182 1.776-.259 2.86-.259 1.143 0 2.091.107 2.829.35.737.23 1.294.625 1.67 1.173.376.548.557 1.28.557 2.178v4.507zm-3.01-2.3h-.918c-.903 0-1.625.047-2.167.153-.542.107-.933.274-1.174.503-.24.243-.361.563-.361.974 0 .305.075.579.21.792.136.213.362.38.648.503.286.121.662.198 1.113.198.602 0 1.114-.107 1.566-.305a2.944 2.944 0 0 0 1.083-.822v-1.995zm6.529 7.901v-2.208c.195.122.406.229.662.29.24.076.527.106.873.106.36 0 .662-.045.903-.152.24-.107.451-.274.617-.487.165-.213.316-.472.466-.777l-.06.914L55.585 8.35h3.16l3.792 9.213-1.023.106L65.11 8.35H68l-4.259 10.187c-.27.655-.557 1.203-.858 1.676a5.57 5.57 0 0 1-1.023 1.172 3.37 3.37 0 0 1-1.28.685c-.466.137-1.038.214-1.67.214a4.854 4.854 0 0 1-1.76-.275zM11.9 0c6.573 0 11.901 5.328 11.901 11.9v.2c0 6.572-5.328 11.9-11.9 11.9C5.328 24 0 18.672 0 12.1v-.2C0 5.329 5.328 0 11.9 0zm4.164 4.812h-3.616C8.81 4.812 6.9 6.697 6.9 9.474c0 2.217 1.048 3.522 2.918 4.869L6.57 19.212h2.692l3.616-5.45-1.253-.849c-1.52-1.036-2.26-1.844-2.26-3.584 0-1.533 1.068-2.57 3.102-2.57h1.11v12.453h2.486v-14.4z" fill-rule="nonzero"/>
</svg>
