<svg id="apple-pay" viewBox="0 0 64 27" xmlns="http://www.w3.org/2000/svg">
  <path d="M11.694 3.481c-.75.912-1.95 1.631-3.15 1.529-.15-1.234.438-2.544 1.125-3.353C10.42.719 11.732.051 12.794 0c.125 1.285-.362 2.543-1.1 3.481zm1.088 1.773c-1.058-.063-2.022.327-2.802.64-.501.203-.926.375-1.249.375-.362 0-.805-.18-1.301-.384-.65-.265-1.394-.569-2.174-.554-1.788.026-3.45 1.066-4.363 2.723-1.875 3.314-.488 8.22 1.325 10.918.888 1.336 1.95 2.8 3.35 2.75.616-.025 1.06-.218 1.518-.418.528-.23 1.076-.47 1.933-.47.826 0 1.35.234 1.854.457.479.213.939.417 1.621.405 1.45-.026 2.363-1.336 3.25-2.672a11.89 11.89 0 0 0 1.443-3.046l.008-.024a.323.323 0 0 0-.035-.017c-.32-.15-2.767-1.302-2.79-4.39-.024-2.59 1.94-3.903 2.25-4.11l.037-.025c-1.25-1.901-3.2-2.107-3.875-2.158zm10.038 16.3V1.528h7.314c3.775 0 6.413 2.672 6.413 6.577s-2.688 6.602-6.513 6.602h-4.188v6.847H22.82zm3.025-17.406h3.488c2.625 0 4.126 1.44 4.126 3.97 0 2.53-1.5 3.982-4.138 3.982h-3.476V4.148zm20.69 15.004c-.8 1.567-2.562 2.556-4.463 2.556-2.812 0-4.775-1.721-4.775-4.316 0-2.569 1.9-4.046 5.413-4.264l3.775-.232v-1.104c0-1.632-1.037-2.518-2.888-2.518-1.525 0-2.637.81-2.862 2.043h-2.726c.088-2.595 2.463-4.483 5.676-4.483 3.463 0 5.713 1.862 5.713 4.752v9.968h-2.8v-2.402h-.063zm-3.65.18c-1.612 0-2.637-.796-2.637-2.016 0-1.259.987-1.991 2.875-2.107l3.363-.218v1.13c0 1.876-1.55 3.212-3.6 3.212zm15.802 3.005c-1.213 3.507-2.6 4.663-5.55 4.663-.226 0-.976-.026-1.151-.077V24.52c.188.026.65.051.888.051 1.337 0 2.087-.578 2.55-2.08l.275-.887-5.126-14.58h3.163L57.3 18.857h.062l3.564-11.83H64l-5.313 15.311z" fill-rule="evenodd"/>
</svg>
