<svg id="jcb" viewBox="0 0 43 32" xmlns="http://www.w3.org/2000/svg">
  <path d="M32.382 16.648c1.165.025 2.337-.051 3.497.04 1.175.217 1.458 1.985.414 2.564-.712.381-1.558.142-2.33.209h-1.581v-2.813zm4.17-3.185c.26.908-.621 1.723-1.501 1.598h-2.669c.019-.856-.037-1.785.027-2.596 1.07.03 2.148-.061 3.211.047.457.115.839.488.932.951zM42.975.001c.05 1.734.007 3.559.022 5.328-.004 7.191.007 14.382-.006 21.574-.047 2.695-2.45 5.037-5.144 5.091-2.696.011-5.393.002-8.09.005V21.127c2.938-.015 5.878.03 8.815-.023 1.362-.085 2.854-.978 2.918-2.468.16-1.496-1.26-2.531-2.607-2.695-.518-.013-.503-.15 0-.21 1.285-.275 2.295-1.597 1.917-2.921-.323-1.393-1.872-1.932-3.16-1.93-2.627-.017-5.255-.002-7.882-.007.017-2.03-.035-4.061.028-6.09.208-2.646 2.673-4.829 5.328-4.781L42.975 0zM.07 5.058C.137 2.367 2.55.044 5.24.005 7.927-.004 10.614.003 13.301 0c-.008 9.003.014 18.007-.012 27.01-.103 2.658-2.491 4.937-5.152 4.984-2.691.01-5.383.001-8.074.004V20.76c2.614.614 5.355.875 8.022.468 1.595-.255 3.339-1.033 3.879-2.676.397-1.406.173-2.885.232-4.328v-3.35H7.581c-.021 2.215.042 4.435-.034 6.649-.124 1.36-1.48 2.225-2.771 2.178C3.174 19.718 0 18.548 0 18.548c-.008-4.152.046-9.352.069-13.49zM15.022 12.225c-.243.05-.05-.823-.111-1.154.016-2.095-.035-4.193.028-6.286.207-2.658 2.69-4.846 5.357-4.784h7.853c-.008 9.003.014 18.008-.011 27.01-.104 2.658-2.492 4.937-5.153 4.984-2.691.01-5.383.001-8.074.004V19.686c1.838 1.498 4.336 1.732 6.626 1.736 1.727 0 3.443-.265 5.12-.66v-2.257c-1.89.936-4.11 1.53-6.205.993-1.461-.362-2.522-1.765-2.498-3.263-.17-1.558.75-3.203 2.29-3.666 1.914-.595 3.999-.14 5.792.633.384.2.774.448.62-.19V11.24c-2.999-.709-6.19-.97-9.204-.199-.872.245-1.722.616-2.43 1.185z" fill-rule="nonzero"/>
</svg>
