<svg id="mir" viewBox="0 0 56 16" xmlns="http://www.w3.org/2000/svg">
  <path d="m7.795 1.955 1.867 6.354.16.555h.379l2.049-6.91C12.78.198 13.973.014 14.725 0l5.298.002V15H15.02V6.161h-.335L11.894 15H8.13L5.34 6.155h-.335V15H0V.002L5.502 0l.208.012c.659.06 1.613.377 2.085 1.943zM27.21.002v8.845h.4l3.393-7.273A2.687 2.687 0 0 1 33.054.003l4.853-.001V15h-5.11V6.155H32.4l-3.327 7.273C28.413 14.87 26.943 15 26.943 15h-4.842V.002h5.108zm28.355 7.127c-.684 1.904-2.774 3.289-5.132 3.397l-.296.006H44.78V15H39.92V7.13h15.643zM50.37.002c4.12 0 6.11 3.422 5.532 6.197H45.88c-3.031 0-5.96-2.858-6.214-6.197H50.37z" fill-rule="nonzero"/>
</svg>
