<svg id="question" viewBox="0 0 19 19" xmlns="http://www.w3.org/2000/svg">
  <g fill-rule="evenodd">
    <circle fill="none" cx="9.5" cy="9.5" r="9"/>
    <path d="M8.733 11.545v-.05c.006-.543.062-.975.17-1.296.108-.321.262-.581.46-.78.2-.199.438-.382.717-.55a2.2 2.2 0 0 0 .451-.364 1.56 1.56 0 0 0 .435-1.102c0-.278-.065-.52-.196-.724a1.316 1.316 0 0 0-.524-.473 1.59 1.59 0 0 0-.729-.166c-.233 0-.457.048-.673.145a1.303 1.303 0 0 0-.541.456c-.145.207-.23.478-.252.814H6.977c.023-.483.149-.897.377-1.24a2.24 2.24 0 0 1 .908-.789 2.848 2.848 0 0 1 1.255-.273c.5 0 .935.1 1.306.299.37.199.658.471.861.818.203.346.305.741.305 1.185 0 .312-.048.595-.143.848a2.14 2.14 0 0 1-.41.677 2.85 2.85 0 0 1-.64.529c-.25.156-.45.32-.601.492a1.58 1.58 0 0 0-.328.611c-.069.236-.106.53-.111.882v.051H8.733zm.545 2.523a.738.738 0 0 1-.54-.226.738.738 0 0 1-.227-.54c0-.211.076-.391.226-.542a.738.738 0 0 1 .541-.226c.21 0 .391.075.542.226.15.15.225.33.225.541 0 .14-.034.267-.104.384a.802.802 0 0 1-.277.279.73.73 0 0 1-.386.104z" stroke="none" fill-rule="nonzero"/>
  </g>
</svg>
