<svg id="unionpay" viewBox="0 0 56 32.001" xmlns="http://www.w3.org/2000/svg">
  <path d="M21.13 0c-1.145.699-2.04 1.794-2.36 3.043l-2.856 11.308-.409.057-.062.041-.072.554c-.072.51-.176 1.074-.41 2.104-.122.518-.248 1.04-.375 1.557l.034.066.188-.01-2.487 9.848c-.357 1.397.092 2.658 1.048 3.433H2.83C.864 32-.363 30.545.096 28.763l6.57-25.522C7.124 1.453 9.094 0 11.065 0h10.063zm15.152 0C35.12.698 34.21 1.792 33.89 3.043l-2.87 11.156a2.438 2.438 0 0 0-.672.21c-.135.07-.27.151-.403.233l.116-.448-.062-.075-.457.09c-.456.087-.695.118-1.272.2l-.057.04-.073.554c-.074.51-.175 1.073-.41 2.104-.121.518-.248 1.04-.374 1.557l.034.066.62-.028c.342-.01.59-.008 1.03-.001l.057-.058.183-.955.297-1.41c.06-.28.119-.54.158-.683.165-.077.326-.152.486-.152.301 0 .326.216.317.366l-.008.086c-.006.092-.033.27-.074.493l-3.132 12.177c-.344 1.326.049 2.529.916 3.31l.148.125h-12.61c-1.874 0-3.058-1.361-2.72-3.064l.04-.172 2.543-10.07.29.002.343.005.054-.058.152-.786.375-1.784c.043-.198.084-.37.114-.478.165-.077.328-.152.484-.152.303 0 .328.216.32.366l-.01.086c-.01.157-.085.574-.178 1.023l-.11.506-.293 1.249.028.057.434-.021c.439-.018.688-.017 1.186-.008l.075-.058.112-.631c.055-.298.117-.598.243-1.2l.189-.827c.14-.638.193-1.005.064-1.313-.16-.407-.546-.506-.9-.506-.23 0-.652.056-1.031.242-.138.07-.268.152-.405.234l.123-.448-.067-.075-.459.09 2.771-10.967C20.002 1.453 21.934 0 23.868 0h12.414zM53.17 0c1.972 0 3.196 1.453 2.733 3.242l-6.565 25.522C48.873 30.546 46.9 32 44.929 32H30.832c-1.973 0-3.197-1.454-2.734-3.236L30.689 18.7c.286-.007.52-.005.904.002l.078-.058.13-.744c.05-.265.11-.56.225-1.087l.222-.994c.114-.538.148-.866.033-1.146a.745.745 0 0 0-.446-.432l2.83-10.998C35.122 1.453 37.091 0 39.064 0h14.104zm-3.92 14.23-.061-.07-.622.123c-.331.063-.557.096-1.043.162l-.053.053-.008.034-.003-.012-.254.563c-.103.22-.178.36-.246.482l-.2.363c-.07.134-.154.304-.268.558l-.115-2.255-.07-.07-.887.175c-.186.034-.38.064-.73.109l-.059.053-.013.084.005.011.071.384c.024.152.038.294.098.77l.149 1.135.14 1.197c.02.193.043.417.07.696-.501.828-.978 1.668-1.486 2.491l-.326.437c-.12.158-.229.298-.238.297h1.685s.134.004.175-.248c.04-.252.623-1.068.623-1.068h-.01l.066-.076c.42-.903 3.61-6.377 3.61-6.377zm-5.324.074-.023-.067-.648.116c-.358.062-.624.1-1.138.173l-.058.048-.024.18a1.101 1.101 0 0 0-.561-.461c-.343-.135-1.148.039-1.84.668-.432.4-.664.932-.804 1.46l-.048.197c-.14.596-.3 1.684.696 2.072.317.135.602.175.89.16.306-.016.589-.169.85-.39l-.07.273.045.058.59-.021c.336-.009.607-.007 1.124-.003l.07-.054.158-.897c.082-.439.189-.962.357-1.69.144-.61.287-1.215.434-1.822zm-18.427-.11-.172.004c-.427.017-1.165.117-1.76.665-.492.456-.72 1.075-.857 1.668l-.04.194c-.118.62-.157 1.539.743 1.903.309.133.754.17 1.04.17.734 0 1.485-.203 2.05-.802.436-.486.635-1.21.704-1.508.225-.987.05-1.448-.17-1.728-.334-.428-.925-.566-1.538-.566zm-11.97-3.178-.936 4.317-.1.428c-.152.607-.315 1.058-.7 1.37-.268.22-.58.327-.943.327-.582 0-.922-.289-.979-.837l-.01-.189.177-1.113.703-2.77c.16-.615.302-1.153.373-1.383l.02-.064a.365.365 0 0 0 .014-.056l-.948.006-.688-.002c-.4-.005-.505-.017-.517-.034l-.057.271-1.031 4.554-.158 1.165c0 .346.068.627.203.866.432.756 1.666.87 2.364.87.9 0 1.744-.192 2.314-.54.99-.586 1.248-1.5 1.48-2.312l.847-3.364c.173-.677.324-1.25.38-1.424.006-.028.009-.043.017-.056l-.612.004h-.461l-.485-.009a1.602 1.602 0 0 1-.267-.025zm8.74 4.106-.014-.034-.648.121-.957.144a76.4 76.4 0 0 1-.181.025l-.03.028-.029.022-.075.547a8.72 8.72 0 0 1-.046.28 11.85 11.85 0 0 1-.141.749l-.087.387a5.434 5.434 0 0 1-.145.538l-.119.33a6.66 6.66 0 0 0-.118.405l.042.066.542-.024.296-.007c.242-.01.492 0 .88.002l.07-.058.086-.521.249-1.13.214-.917.222-.917-.01-.036zM34.448 11l-.173.826-.394 1.823-1.232 5.073 1.085-.01.616.005c.095.003.165.007.218.013l.33-1.6s.24-1.004.254-1.04l.032-.04a.484.484 0 0 1 .119-.106l.566-.002c.922-.012 1.903-.096 2.696-.679.63-.467 1.06-1.156 1.252-1.994.05-.205.087-.45.087-.694 0-.32-.065-.638-.251-.886-.413-.578-1.184-.66-2.097-.674l-.57-.002-1.69.013c-.465 0-.713-.009-.848-.026zm6.895 4.3c.322 0 .492.297.458.805l-.092.411-.16.651a1.573 1.573 0 0 1-.19.381c-.112.16-.357.268-.539.295l-.084.007c-.05 0-.366 0-.377-.464-.002-.232.045-.47.105-.731l.07-.287c.16-.602.366-1.069.809-1.069zm-16.07-.1c.373 0 .423.408.284 1.072l-.07.315c-.062.255-.184.675-.337.88-.138.194-.3.312-.48.312l-.047-.002c-.105-.01-.327-.076-.33-.47a2.596 2.596 0 0 1 .062-.54l.04-.191c.17-.748.37-1.375.878-1.375zm-4.437-1.205c-.427.29-.475.7-.114.917.356.207.994.146 1.418-.152.426-.296.48-.703.122-.915-.362-.213-.998-.146-1.426.15zm15.197-1.769.007-.09 1.327.118c.43.167.608.596.484 1.156-.113.512-.445.942-.871 1.15-.302.151-.66.184-1.037.19l-.476.001.037-.18.511-2.227.017-.118z" fill-rule="nonzero"/>
</svg>
