<svg id="logo" viewBox="0 0 64 64" xmlns="http://www.w3.org/2000/svg">
  <g fill="none" fill-rule="evenodd">
    <path d="M32 0c17.673 0 32 14.327 32 32 0 17.673-14.327 32-32 32C14.327 64 0 49.673 0 32 0 14.327 14.327 0 32 0z" fill="#ffc64b"/>
    <path d="M32 2.56c16.26 0 29.44 13.18 29.44 29.44S48.26 61.44 32 61.44 2.56 48.26 2.56 32 15.74 2.56 32 2.56z" fill="#eb9900"/>
    <path d="M23.095 39.397A8.959 8.959 0 0 0 32 47.36c4.565 0 8.387-3.432 8.901-7.927l5.087.582C45.178 47.088 39.174 52.48 32 52.48a14.078 14.078 0 0 1-13.994-12.52l5.089-.563zM32 11.52c7.776 0 14.08 6.304 14.08 14.08S39.776 39.68 32 39.68 17.92 33.376 17.92 25.6 24.224 11.52 32 11.52zm0 5.12a8.96 8.96 0 1 0 0 17.92 8.96 8.96 0 0 0 0-17.92z" fill="#ffc64b" fill-rule="nonzero"/>
  </g>
</svg>
