<svg id="logo" viewBox="0 0 194 50" xmlns="http://www.w3.org/2000/svg">
  <g fill="none" fill-rule="evenodd">
    <g fill-rule="nonzero">
      <path d="m62 29.582 1.59-2.283c1.135 1.014 2.484 1.522 4.046 1.522.633 0 1.121-.123 1.465-.367.344-.245.516-.584.516-1.02 0-.398-.241-.742-.725-1.032a8.883 8.883 0 0 0-1.532-.708l-.226-.08a23.105 23.105 0 0 1-2.079-.829 4.809 4.809 0 0 1-1.771-1.372c-.484-.598-.726-1.313-.726-2.147 0-1.304.516-2.323 1.549-3.057 1.032-.733 2.33-1.1 3.892-1.1 1.972 0 3.572.525 4.8 1.576l-1.312 2.418c-.41-.344-.953-.63-1.632-.856a6.206 6.206 0 0 0-1.968-.34c-1.32 0-1.98.444-1.98 1.332 0 .399.241.743.725 1.033.435.26.957.5 1.566.716l.206.072c.697.235 1.39.503 2.078.801a4.582 4.582 0 0 1 1.758 1.346c.484.597.726 1.313.726 2.146 0 1.232-.493 2.251-1.48 3.057-.985.806-2.287 1.21-3.905 1.21-2.27 0-4.13-.68-5.581-2.038zm13.14-3.37.083-12.554h3.46v3.967h3.237v2.745h-3.237v5.407c0 .997.293 1.68.88 2.052a3.55 3.55 0 0 0 1.939.557c.241 0 .455-.018.641-.054v3.016l-.523.048c-.269.022-.457.033-.565.033-.484 0-.949-.031-1.395-.095-.446-.063-.958-.204-1.535-.421a5.055 5.055 0 0 1-1.492-.856c-.419-.353-.772-.86-1.06-1.522-.29-.66-.433-1.435-.433-2.323zm8.554-1.848c0-2.138.674-3.881 2.023-5.23 1.349-1.35 3.093-2.025 5.232-2.025 1.972 0 3.516.62 4.632 1.861 1.116 1.241 1.674 2.813 1.674 4.715l-.003.165c-.01.294-.047.683-.109 1.166H87.35c.112 1.16.568 2.061 1.368 2.704.8.643 1.767.965 2.902.965 1.413 0 2.771-.507 4.073-1.522l1.395 2.473c-.706.616-1.576 1.1-2.608 1.454a9.555 9.555 0 0 1-3.112.53c-2.288 0-4.139-.702-5.552-2.106-1.414-1.404-2.12-3.12-2.12-5.15zm3.74-1.712h6.277c-.018-.906-.293-1.621-.823-2.147-.53-.525-1.204-.788-2.023-.788-.893 0-1.646.268-2.26.802-.614.534-1.004 1.245-1.172 2.133zm11.69 4.81c0-.978.275-1.812.823-2.5.55-.688 1.275-1.191 2.177-1.508a14.325 14.325 0 0 1 2.623-.666c.846-.127 1.734-.19 2.664-.19h.614v-.19c0-1.63-.893-2.446-2.678-2.446-1.302 0-2.623.444-3.963 1.331l-1.311-2.472c.614-.471 1.442-.874 2.483-1.21a10.069 10.069 0 0 1 3.098-.502c1.86 0 3.31.484 4.352 1.453 1.042.97 1.563 2.324 1.563 4.063v8.668h-3.293v-1.168l.084-1.005h-.056c-.446.742-1.07 1.345-1.87 1.807-.799.462-1.673.693-2.622.693-1.32 0-2.432-.385-3.334-1.155-.903-.77-1.354-1.771-1.354-3.003zm3.516-.299c0 .49.19.915.572 1.277.381.363.907.544 1.577.544.948 0 1.73-.38 2.343-1.142.614-.76.921-1.594.921-2.5v-.38h-.614c-3.2 0-4.799.734-4.799 2.201zm12.266 4.13V17.435h3.404v1.63l-.056.978h.056c.372-.76.98-1.44 1.827-2.038a4.795 4.795 0 0 1 2.832-.896c2.158 0 3.535.95 4.13 2.853h.056c.428-.779 1.079-1.45 1.953-2.01a5.259 5.259 0 0 1 2.902-.843c3.106 0 4.66 1.757 4.66 5.271v8.913h-3.516v-8.26c0-.888-.14-1.572-.419-2.052-.279-.48-.79-.72-1.534-.72-1.154 0-2.046.475-2.679 1.427-.632.95-.949 2.078-.949 3.383v6.222h-3.543v-8.26c0-.888-.13-1.572-.39-2.052-.261-.48-.773-.72-1.536-.72-1.153 0-2.05.484-2.692 1.454-.642.969-.963 2.088-.963 3.356v6.222h-3.543z" fill="#b0b5c1"/>
      <path d="M142.262 33.168a9.105 9.105 0 0 0 3.934.897c1.19 0 2.158-.272 2.902-.815.744-.543 1.116-1.395 1.116-2.554v-.87l.056-.734h-.056c-.874 1.287-2.204 1.93-3.99 1.93-1.972 0-3.525-.67-4.66-2.011-1.134-1.34-1.702-3.007-1.702-5 0-1.993.554-3.641 1.66-4.946 1.107-1.304 2.647-1.956 4.618-1.956 1.935 0 3.349.607 4.242 1.82h.083a1.175 1.175 0 0 1-.056-.38v-1.114h3.349V30.45c0 1.141-.214 2.147-.642 3.016-.428.87-1.004 1.554-1.73 2.052-.725.498-1.52.87-2.386 1.114-.865.245-1.78.367-2.748.367-1.804 0-3.497-.399-5.078-1.196l1.088-2.636zm1.172-9.266c0 1.25.311 2.265.935 3.044.623.779 1.502 1.168 2.636 1.168.95 0 1.735-.317 2.358-.951.623-.634.935-1.676.935-3.125 0-2.663-1.172-3.995-3.516-3.995-1.06 0-1.883.35-2.47 1.047-.585.697-.878 1.635-.878 2.812zm14.932 5.68c-1.507-1.377-2.26-3.116-2.26-5.218 0-2.101.753-3.836 2.26-5.204 1.507-1.367 3.349-2.051 5.525-2.051 2.195 0 4.05.684 5.567 2.051 1.516 1.368 2.274 3.103 2.274 5.204 0 2.102-.754 3.836-2.26 5.204-1.507 1.368-3.358 2.052-5.553 2.052s-4.046-.68-5.553-2.038zm1.34-5.218c0 1.268.404 2.305 1.213 3.112.81.806 1.81 1.209 3 1.209s2.195-.403 3.013-1.21c.819-.806 1.228-1.843 1.228-3.11 0-1.25-.414-2.283-1.242-3.099-.827-.815-1.827-1.223-3-1.223-1.171 0-2.166.408-2.985 1.223-.818.816-1.227 1.848-1.227 3.098zm14.313 6.93L174.08 12h3.517l-.06 19.293h-3.517zm5.862-6.93c0-2.174.6-3.927 1.8-5.258 1.2-1.332 2.748-1.997 4.646-1.997 1.879 0 3.264.607 4.157 1.82h.056a5.277 5.277 0 0 1-.056-.815V12H194v19.293h-3.32v-1.195l.055-.87h-.055c-.428.725-1.037 1.305-1.828 1.74-.79.434-1.679.652-2.665.652-1.897 0-3.422-.67-4.576-2.011-1.153-1.34-1.73-3.09-1.73-5.245zm3.572 0c0 1.304.325 2.355.976 3.152.651.797 1.507 1.196 2.567 1.196 1.005 0 1.851-.367 2.54-1.1.688-.734 1.032-1.826 1.032-3.275 0-1.16-.307-2.16-.92-3.003-.615-.842-1.489-1.263-2.624-1.263-1.004 0-1.85.385-2.539 1.155-.688.77-1.032 1.816-1.032 3.138z" fill="#eb9900"/>
    </g>
    <path d="M25 0c13.807 0 25 11.193 25 25S38.807 50 25 50 0 38.807 0 25 11.193 0 25 0z" fill="#ffc64b"/>
    <path d="M25 2c12.703 0 23 10.297 23 23S37.703 48 25 48 2 37.703 2 25 12.297 2 25 2z" fill="#eb9900"/>
    <path d="M18.043 30.78A6.999 6.999 0 0 0 25 37a7.001 7.001 0 0 0 6.954-6.193l3.974.455C35.296 36.788 30.605 41 25 41a10.998 10.998 0 0 1-10.933-9.782l3.976-.439zM25 9c6.075 0 11 4.925 11 11s-4.925 11-11 11-11-4.925-11-11S18.925 9 25 9zm0 4a7 7 0 1 0 0 14 7 7 0 0 0 0-14z" fill="#ffc64b" fill-rule="nonzero"/>
  </g>
</svg>
