<svg id="logo-footer" viewBox="0 0 50 50" xmlns="http://www.w3.org/2000/svg">
  <g fill="none" fill-rule="evenodd">
    <path d="M25 0c13.807 0 25 11.193 25 25S38.807 50 25 50 0 38.807 0 25 11.193 0 25 0z" fill="#50535a"/>
    <path d="M25 2c12.703 0 23 10.297 23 23S37.703 48 25 48 2 37.703 2 25 12.297 2 25 2z" fill="#181a21"/>
    <path d="M18.043 30.78A6.999 6.999 0 0 0 25 37a7.001 7.001 0 0 0 6.954-6.193l3.974.455C35.296 36.788 30.605 41 25 41a10.998 10.998 0 0 1-10.933-9.782l3.976-.439zM25 9c6.075 0 11 4.925 11 11s-4.925 11-11 11-11-4.925-11-11S18.925 9 25 9zm0 4a7 7 0 1 0 0 14 7 7 0 0 0 0-14z" fill="#50535a" fill-rule="nonzero"/>
  </g>
</svg>
